STARTFONT 2.1
COMMENT Exported by Fony v1.4.7
FONT Bahnschrift
SIZE 39 96 96
FONTBOUNDINGBOX 31 38 0 -7
STARTPROPERTIES 6
COPYRIGHT ""
RESOLUTION_X 96
RESOLUTION_Y 96
FONT_ASCENT 32
FONT_DESCENT 7
DEFAULT_CHAR 0
ENDPROPERTIES
CHARS 256
STARTCHAR 000
ENCODING 0
SWIDTH 1656 0
DWIDTH 23 0
BBX 0 0 0 0
BITMAP
ENDCHAR
STARTCHAR 001
ENCODING 1
SWIDTH 1656 0
DWIDTH 23 0
BBX 8 26 1 0
BITMAP
FF
FF
C3
C3
C3
C3
C3
C3
C3
C3
C3
C3
C3
C3
C3
C3
C3
C3
C3
C3
C3
C3
C3
C3
FF
FF
ENDCHAR
STARTCHAR 002
ENCODING 2
SWIDTH 1656 0
DWIDTH 23 0
BBX 0 0 0 0
BITMAP
ENDCHAR
STARTCHAR 003
ENCODING 3
SWIDTH 1656 0
DWIDTH 23 0
BBX 8 26 1 0
BITMAP
FF
FF
C3
C3
C3
C3
C3
C3
C3
C3
C3
C3
C3
C3
C3
C3
C3
C3
C3
C3
C3
C3
C3
C3
FF
FF
ENDCHAR
STARTCHAR 004
ENCODING 4
SWIDTH 1656 0
DWIDTH 23 0
BBX 8 26 1 0
BITMAP
FF
FF
C3
C3
C3
C3
C3
C3
C3
C3
C3
C3
C3
C3
C3
C3
C3
C3
C3
C3
C3
C3
C3
C3
FF
FF
ENDCHAR
STARTCHAR 005
ENCODING 5
SWIDTH 1656 0
DWIDTH 23 0
BBX 8 26 1 0
BITMAP
FF
FF
C3
C3
C3
C3
C3
C3
C3
C3
C3
C3
C3
C3
C3
C3
C3
C3
C3
C3
C3
C3
C3
C3
FF
FF
ENDCHAR
STARTCHAR 006
ENCODING 6
SWIDTH 1656 0
DWIDTH 23 0
BBX 8 26 1 0
BITMAP
FF
FF
C3
C3
C3
C3
C3
C3
C3
C3
C3
C3
C3
C3
C3
C3
C3
C3
C3
C3
C3
C3
C3
C3
FF
FF
ENDCHAR
STARTCHAR 007
ENCODING 7
SWIDTH 1656 0
DWIDTH 23 0
BBX 8 26 1 0
BITMAP
FF
FF
C3
C3
C3
C3
C3
C3
C3
C3
C3
C3
C3
C3
C3
C3
C3
C3
C3
C3
C3
C3
C3
C3
FF
FF
ENDCHAR
STARTCHAR 008
ENCODING 8
SWIDTH 1656 0
DWIDTH 23 0
BBX 8 26 1 0
BITMAP
FF
FF
C3
C3
C3
C3
C3
C3
C3
C3
C3
C3
C3
C3
C3
C3
C3
C3
C3
C3
C3
C3
C3
C3
FF
FF
ENDCHAR
STARTCHAR 009
ENCODING 9
SWIDTH 1656 0
DWIDTH 23 0
BBX 0 0 0 0
BITMAP
ENDCHAR
STARTCHAR 010
ENCODING 10
SWIDTH 1656 0
DWIDTH 23 0
BBX 0 0 0 0
BITMAP
ENDCHAR
STARTCHAR 011
ENCODING 11
SWIDTH 1656 0
DWIDTH 23 0
BBX 8 26 1 0
BITMAP
FF
FF
C3
C3
C3
C3
C3
C3
C3
C3
C3
C3
C3
C3
C3
C3
C3
C3
C3
C3
C3
C3
C3
C3
FF
FF
ENDCHAR
STARTCHAR 012
ENCODING 12
SWIDTH 1656 0
DWIDTH 23 0
BBX 17 23 3 0
BITMAP
FFFF80
FFFF80
FFFF80
E00380
E00380
E00380
E00380
E00380
E00380
E00380
E00380
E00380
E00380
E00380
E00380
E00380
E00380
E00380
E00380
E00380
FFFF80
FFFF80
FFFF80
ENDCHAR
STARTCHAR 013
ENCODING 13
SWIDTH 1656 0
DWIDTH 23 0
BBX 0 0 0 0
BITMAP
ENDCHAR
STARTCHAR 014
ENCODING 14
SWIDTH 1656 0
DWIDTH 23 0
BBX 8 26 1 0
BITMAP
FF
FF
C3
C3
C3
C3
C3
C3
C3
C3
C3
C3
C3
C3
C3
C3
C3
C3
C3
C3
C3
C3
C3
C3
FF
FF
ENDCHAR
STARTCHAR 015
ENCODING 15
SWIDTH 1656 0
DWIDTH 23 0
BBX 8 26 1 0
BITMAP
FF
FF
C3
C3
C3
C3
C3
C3
C3
C3
C3
C3
C3
C3
C3
C3
C3
C3
C3
C3
C3
C3
C3
C3
FF
FF
ENDCHAR
STARTCHAR 016
ENCODING 16
SWIDTH 1656 0
DWIDTH 23 0
BBX 8 26 1 0
BITMAP
FF
FF
C3
C3
C3
C3
C3
C3
C3
C3
C3
C3
C3
C3
C3
C3
C3
C3
C3
C3
C3
C3
C3
C3
FF
FF
ENDCHAR
STARTCHAR 017
ENCODING 17
SWIDTH 1656 0
DWIDTH 23 0
BBX 8 26 1 0
BITMAP
FF
FF
C3
C3
C3
C3
C3
C3
C3
C3
C3
C3
C3
C3
C3
C3
C3
C3
C3
C3
C3
C3
C3
C3
FF
FF
ENDCHAR
STARTCHAR 018
ENCODING 18
SWIDTH 1656 0
DWIDTH 23 0
BBX 8 26 1 0
BITMAP
FF
FF
C3
C3
C3
C3
C3
C3
C3
C3
C3
C3
C3
C3
C3
C3
C3
C3
C3
C3
C3
C3
C3
C3
FF
FF
ENDCHAR
STARTCHAR 019
ENCODING 19
SWIDTH 1656 0
DWIDTH 23 0
BBX 8 26 1 0
BITMAP
FF
FF
C3
C3
C3
C3
C3
C3
C3
C3
C3
C3
C3
C3
C3
C3
C3
C3
C3
C3
C3
C3
C3
C3
FF
FF
ENDCHAR
STARTCHAR 020
ENCODING 20
SWIDTH 1656 0
DWIDTH 23 0
BBX 8 26 1 0
BITMAP
FF
FF
C3
C3
C3
C3
C3
C3
C3
C3
C3
C3
C3
C3
C3
C3
C3
C3
C3
C3
C3
C3
C3
C3
FF
FF
ENDCHAR
STARTCHAR 021
ENCODING 21
SWIDTH 1656 0
DWIDTH 23 0
BBX 8 26 1 0
BITMAP
FF
FF
C3
C3
C3
C3
C3
C3
C3
C3
C3
C3
C3
C3
C3
C3
C3
C3
C3
C3
C3
C3
C3
C3
FF
FF
ENDCHAR
STARTCHAR 022
ENCODING 22
SWIDTH 1656 0
DWIDTH 23 0
BBX 8 26 1 0
BITMAP
FF
FF
C3
C3
C3
C3
C3
C3
C3
C3
C3
C3
C3
C3
C3
C3
C3
C3
C3
C3
C3
C3
C3
C3
FF
FF
ENDCHAR
STARTCHAR 023
ENCODING 23
SWIDTH 1656 0
DWIDTH 23 0
BBX 8 26 1 0
BITMAP
FF
FF
C3
C3
C3
C3
C3
C3
C3
C3
C3
C3
C3
C3
C3
C3
C3
C3
C3
C3
C3
C3
C3
C3
FF
FF
ENDCHAR
STARTCHAR 024
ENCODING 24
SWIDTH 1656 0
DWIDTH 23 0
BBX 8 26 1 0
BITMAP
FF
FF
C3
C3
C3
C3
C3
C3
C3
C3
C3
C3
C3
C3
C3
C3
C3
C3
C3
C3
C3
C3
C3
C3
FF
FF
ENDCHAR
STARTCHAR 025
ENCODING 25
SWIDTH 1656 0
DWIDTH 23 0
BBX 8 26 1 0
BITMAP
FF
FF
C3
C3
C3
C3
C3
C3
C3
C3
C3
C3
C3
C3
C3
C3
C3
C3
C3
C3
C3
C3
C3
C3
FF
FF
ENDCHAR
STARTCHAR 026
ENCODING 26
SWIDTH 1656 0
DWIDTH 23 0
BBX 8 26 1 0
BITMAP
FF
FF
C3
C3
C3
C3
C3
C3
C3
C3
C3
C3
C3
C3
C3
C3
C3
C3
C3
C3
C3
C3
C3
C3
FF
FF
ENDCHAR
STARTCHAR 027
ENCODING 27
SWIDTH 1656 0
DWIDTH 23 0
BBX 8 26 1 0
BITMAP
FF
FF
C3
C3
C3
C3
C3
C3
C3
C3
C3
C3
C3
C3
C3
C3
C3
C3
C3
C3
C3
C3
C3
C3
FF
FF
ENDCHAR
STARTCHAR 028
ENCODING 28
SWIDTH 1656 0
DWIDTH 23 0
BBX 0 0 0 0
BITMAP
ENDCHAR
STARTCHAR 029
ENCODING 29
SWIDTH 1656 0
DWIDTH 23 0
BBX 0 0 0 0
BITMAP
ENDCHAR
STARTCHAR 030
ENCODING 30
SWIDTH 1656 0
DWIDTH 23 0
BBX 0 0 0 0
BITMAP
ENDCHAR
STARTCHAR 031
ENCODING 31
SWIDTH 1656 0
DWIDTH 23 0
BBX 0 0 0 0
BITMAP
ENDCHAR
STARTCHAR 032
ENCODING 32
SWIDTH 360 0
DWIDTH 5 0
BBX 0 0 0 0
BITMAP
ENDCHAR
STARTCHAR 033
ENCODING 33
SWIDTH 504 0
DWIDTH 7 0
BBX 3 23 2 0
BITMAP
E0
E0
E0
E0
E0
E0
E0
E0
E0
E0
E0
E0
E0
E0
E0
E0
E0
00
00
00
E0
E0
E0
ENDCHAR
STARTCHAR 034
ENCODING 34
SWIDTH 864 0
DWIDTH 12 0
BBX 8 8 2 15
BITMAP
E7
E7
E7
E7
E7
E7
E7
E7
ENDCHAR
STARTCHAR 035
ENCODING 35
SWIDTH 1440 0
DWIDTH 20 0
BBX 18 23 1 0
BITMAP
038600
038600
030600
030E00
030E00
070E00
7FFFC0
7FFFC0
7FFFC0
061C00
061C00
0E1C00
0E1800
0E1800
FFFF80
FFFF80
FFFF80
1C3800
1C3000
1C3000
183000
187000
187000
ENDCHAR
STARTCHAR 036
ENCODING 36
SWIDTH 1296 0
DWIDTH 18 0
BBX 15 29 2 -3
BITMAP
0380
0380
0380
0FE0
3FF8
7FFC
7BB8
7388
F380
F380
F380
F380
7F80
7FC0
3FF8
07FC
03FC
039E
039E
039E
439E
E39E
FBBC
FFFC
3FF8
0FE0
0380
0380
0380
ENDCHAR
STARTCHAR 037
ENCODING 37
SWIDTH 1584 0
DWIDTH 22 0
BBX 18 23 2 0
BITMAP
780700
FC0700
FE0E00
CE0E00
C61C00
C61C00
C63800
CE3000
FC7000
786000
00E000
01C000
01C000
038780
038FC0
071FC0
071CC0
0E18C0
0E18C0
1C18C0
181CC0
380FC0
300780
ENDCHAR
STARTCHAR 038
ENCODING 38
SWIDTH 1512 0
DWIDTH 21 0
BBX 18 23 2 0
BITMAP
03E000
0FF800
1FFC00
1E3C00
3C1C00
381C00
380000
3C0000
1C0000
1C0000
1E0000
3F0380
7F8380
7FC780
F3C700
E1E700
E0F700
E07F00
F03E00
783E00
7FFF00
3FF780
0FC3C0
ENDCHAR
STARTCHAR 039
ENCODING 39
SWIDTH 432 0
DWIDTH 6 0
BBX 3 8 1 15
BITMAP
E0
E0
E0
E0
E0
E0
E0
E0
ENDCHAR
STARTCHAR 040
ENCODING 40
SWIDTH 792 0
DWIDTH 11 0
BBX 7 30 3 -5
BITMAP
04
0E
1E
1C
3C
38
78
70
70
F0
E0
E0
E0
E0
E0
E0
E0
E0
E0
E0
F0
70
70
78
38
3C
1C
1E
0E
04
ENDCHAR
STARTCHAR 041
ENCODING 41
SWIDTH 792 0
DWIDTH 11 0
BBX 7 30 1 -5
BITMAP
40
E0
E0
70
78
38
3C
1C
1C
1C
0E
0E
0E
0E
0E
0E
0E
0E
0E
0E
1C
1C
1C
3C
38
78
70
E0
E0
40
ENDCHAR
STARTCHAR 042
ENCODING 42
SWIDTH 1008 0
DWIDTH 14 0
BBX 12 11 1 13
BITMAP
0600
0600
0600
E660
FFF0
7FE0
0F00
1F80
3BC0
79C0
1080
ENDCHAR
STARTCHAR 043
ENCODING 43
SWIDTH 1224 0
DWIDTH 17 0
BBX 13 13 2 4
BITMAP
0700
0700
0700
0700
0700
FFF8
FFF8
FFF8
0700
0700
0700
0700
0700
ENDCHAR
STARTCHAR 044
ENCODING 44
SWIDTH 504 0
DWIDTH 7 0
BBX 3 6 2 -3
BITMAP
E0
E0
E0
E0
C0
80
ENDCHAR
STARTCHAR 045
ENCODING 45
SWIDTH 1080 0
DWIDTH 15 0
BBX 11 3 2 7
BITMAP
FFE0
FFE0
FFE0
ENDCHAR
STARTCHAR 046
ENCODING 46
SWIDTH 504 0
DWIDTH 7 0
BBX 3 3 2 0
BITMAP
E0
E0
E0
ENDCHAR
STARTCHAR 047
ENCODING 47
SWIDTH 864 0
DWIDTH 12 0
BBX 12 29 0 -4
BITMAP
0030
0030
0070
0070
0070
00E0
00E0
00E0
01C0
01C0
01C0
0380
0380
0780
0700
0700
0E00
0E00
0E00
1C00
1C00
1C00
3800
3800
7800
7000
7000
E000
E000
ENDCHAR
STARTCHAR 048
ENCODING 48
SWIDTH 1296 0
DWIDTH 18 0
BBX 13 23 2 0
BITMAP
0FC0
3FE0
7FF0
7878
7038
F038
F038
F038
F038
F038
F038
F038
F038
F038
F038
F038
F038
F038
7038
7878
7FF0
3FE0
0FC0
ENDCHAR
STARTCHAR 049
ENCODING 49
SWIDTH 792 0
DWIDTH 11 0
BBX 7 23 1 0
BITMAP
1E
7E
FE
FE
CE
0E
0E
0E
0E
0E
0E
0E
0E
0E
0E
0E
0E
0E
0E
0E
0E
0E
0E
ENDCHAR
STARTCHAR 050
ENCODING 50
SWIDTH 1224 0
DWIDTH 17 0
BBX 13 23 2 0
BITMAP
0F80
3FE0
7FF0
F0F0
E078
E078
0078
0070
0070
00F0
01E0
01C0
03C0
0780
0F00
0F00
1E00
3C00
7800
7800
FFF8
FFF8
FFF8
ENDCHAR
STARTCHAR 051
ENCODING 51
SWIDTH 1224 0
DWIDTH 17 0
BBX 14 23 1 0
BITMAP
07C0
1FF0
3FF0
3878
7838
7038
0038
0038
0038
0070
03F0
03C0
03F0
0078
0038
003C
001C
F01C
703C
7878
3FF8
1FF0
0FC0
ENDCHAR
STARTCHAR 052
ENCODING 52
SWIDTH 1296 0
DWIDTH 18 0
BBX 15 23 2 0
BITMAP
01E0
01C0
03C0
0380
0380
0700
0700
0E00
0E00
1E38
1C38
3C38
3838
7838
7038
F038
FFFE
FFFE
FFFE
0038
0038
0038
0038
ENDCHAR
STARTCHAR 053
ENCODING 53
SWIDTH 1224 0
DWIDTH 17 0
BBX 13 23 2 0
BITMAP
7FF0
7FF0
7FF0
7000
7000
7000
7000
77C0
7FE0
7FF0
78F0
7078
0038
0038
0038
0038
0038
F038
7078
78F0
3FF0
3FE0
0F80
ENDCHAR
STARTCHAR 054
ENCODING 54
SWIDTH 1152 0
DWIDTH 16 0
BBX 13 23 2 0
BITMAP
03C0
0380
0780
0700
0E00
0E00
1C00
1C00
3800
3F80
7FE0
7FF0
F0F0
F070
E070
E078
E078
E070
F070
F0F0
7FE0
3FE0
1F80
ENDCHAR
STARTCHAR 055
ENCODING 55
SWIDTH 1152 0
DWIDTH 16 0
BBX 12 23 2 0
BITMAP
FFF0
FFF0
FFF0
E070
E0F0
E0E0
00E0
01E0
01C0
01C0
03C0
03C0
0380
0380
0780
0700
0700
0F00
0F00
0E00
0E00
1E00
1C00
ENDCHAR
STARTCHAR 056
ENCODING 56
SWIDTH 1296 0
DWIDTH 18 0
BBX 14 23 2 0
BITMAP
0FC0
1FE0
3FF0
7878
7038
7038
7038
7038
7038
7878
3FF0
1FE0
3FF0
7878
F03C
E01C
E01C
E01C
F03C
7878
7FF8
3FF0
0FC0
ENDCHAR
STARTCHAR 057
ENCODING 57
SWIDTH 1152 0
DWIDTH 16 0
BBX 13 23 2 0
BITMAP
1F80
3FE0
7FE0
70F0
F070
E070
E078
E078
E070
F070
F0F0
7FF0
3FE0
1FE0
01C0
01C0
0380
0380
0700
0F00
0E00
1E00
1C00
ENDCHAR
STARTCHAR 058
ENCODING 58
SWIDTH 504 0
DWIDTH 7 0
BBX 3 16 2 0
BITMAP
E0
E0
E0
00
00
00
00
00
00
00
00
00
00
E0
E0
E0
ENDCHAR
STARTCHAR 059
ENCODING 59
SWIDTH 504 0
DWIDTH 7 0
BBX 3 19 2 -3
BITMAP
E0
E0
E0
00
00
00
00
00
00
00
00
00
00
E0
E0
E0
E0
C0
80
ENDCHAR
STARTCHAR 060
ENCODING 60
SWIDTH 1008 0
DWIDTH 14 0
BBX 11 13 1 4
BITMAP
0020
00E0
01E0
07E0
1F80
3E00
FC00
3F00
1F80
07E0
01E0
00E0
0020
ENDCHAR
STARTCHAR 061
ENCODING 61
SWIDTH 1080 0
DWIDTH 15 0
BBX 11 8 2 6
BITMAP
FFE0
FFE0
FFE0
0000
0000
FFE0
FFE0
FFE0
ENDCHAR
STARTCHAR 062
ENCODING 62
SWIDTH 1008 0
DWIDTH 14 0
BBX 11 13 2 4
BITMAP
8000
E000
F000
FC00
3E00
1F80
07E0
1F80
7E00
FC00
F000
E000
8000
ENDCHAR
STARTCHAR 063
ENCODING 63
SWIDTH 1008 0
DWIDTH 14 0
BBX 11 23 1 0
BITMAP
1F00
3FC0
7FE0
F1E0
E0E0
E0E0
E0E0
00E0
01E0
01C0
03C0
0780
0700
0F00
0E00
0E00
0E00
0000
0000
0000
0E00
0E00
0E00
ENDCHAR
STARTCHAR 064
ENCODING 64
SWIDTH 2016 0
DWIDTH 28 0
BBX 24 29 2 -6
BITMAP
00FF80
03FFE0
0FFFF0
1F80F8
3E003C
38001E
787E0E
70FF8E
71FF87
71C3C7
E3C1C7
E381C7
E381C7
E381C7
E381C7
E381C7
E381C7
E381C7
E3C1E7
E1C3E7
71FFFF
70FEFE
707C7C
380000
3C0000
1F0000
0FFF80
07FF80
00FF80
ENDCHAR
STARTCHAR 065
ENCODING 65
SWIDTH 1512 0
DWIDTH 21 0
BBX 19 23 1 0
BITMAP
00E000
01E000
01F000
01F000
03F000
03B800
03B800
073800
071C00
071C00
0E1E00
0E0E00
1E0E00
1C0F00
1C0700
3FFF00
3FFF80
3FFF80
780380
7003C0
7001C0
F001E0
E001E0
ENDCHAR
STARTCHAR 066
ENCODING 66
SWIDTH 1512 0
DWIDTH 21 0
BBX 16 23 3 0
BITMAP
FFF0
FFFC
FFFC
E01E
E00E
E00E
E00E
E00E
E00E
E01E
FFFC
FFE0
FFFC
E01E
E00E
E00F
E00F
E00F
E00F
E01E
FFFE
FFFC
FFF0
ENDCHAR
STARTCHAR 067
ENCODING 67
SWIDTH 1440 0
DWIDTH 20 0
BBX 16 23 2 0
BITMAP
07E0
1FF8
3FFC
3C3E
781E
700F
7007
F000
F000
F000
F000
F000
F000
F000
F000
F000
F007
700F
780E
3C3E
3FFC
1FF8
07E0
ENDCHAR
STARTCHAR 068
ENCODING 68
SWIDTH 1512 0
DWIDTH 21 0
BBX 16 23 3 0
BITMAP
FFE0
FFF8
FFFC
E03C
E01E
E00E
E00F
E00F
E00F
E00F
E00F
E00F
E00F
E00F
E00F
E00F
E00F
E00E
E01E
E03C
FFFC
FFF8
FFE0
ENDCHAR
STARTCHAR 069
ENCODING 69
SWIDTH 1368 0
DWIDTH 19 0
BBX 14 23 3 0
BITMAP
FFFC
FFFC
FFFC
E000
E000
E000
E000
E000
E000
E000
FFF8
FFF8
FFF8
E000
E000
E000
E000
E000
E000
E000
FFFC
FFFC
FFFC
ENDCHAR
STARTCHAR 070
ENCODING 70
SWIDTH 1296 0
DWIDTH 18 0
BBX 14 23 3 0
BITMAP
FFFC
FFFC
FFFC
E000
E000
E000
E000
E000
E000
E000
FFF0
FFF0
FFF0
E000
E000
E000
E000
E000
E000
E000
E000
E000
E000
ENDCHAR
STARTCHAR 071
ENCODING 71
SWIDTH 1512 0
DWIDTH 21 0
BBX 16 23 2 0
BITMAP
07E0
1FF8
3FFC
3C3E
781E
700F
7007
F000
F000
F000
F000
F0FF
F0FF
F0FF
F007
F007
F007
7007
780F
7C1E
3FFC
1FF8
07E0
ENDCHAR
STARTCHAR 072
ENCODING 72
SWIDTH 1584 0
DWIDTH 22 0
BBX 16 23 3 0
BITMAP
E007
E007
E007
E007
E007
E007
E007
E007
E007
E007
FFFF
FFFF
FFFF
E007
E007
E007
E007
E007
E007
E007
E007
E007
E007
ENDCHAR
STARTCHAR 073
ENCODING 73
SWIDTH 648 0
DWIDTH 9 0
BBX 3 23 3 0
BITMAP
E0
E0
E0
E0
E0
E0
E0
E0
E0
E0
E0
E0
E0
E0
E0
E0
E0
E0
E0
E0
E0
E0
E0
ENDCHAR
STARTCHAR 074
ENCODING 74
SWIDTH 1152 0
DWIDTH 16 0
BBX 12 23 1 0
BITMAP
0070
0070
0070
0070
0070
0070
0070
0070
0070
0070
0070
0070
0070
0070
0070
0070
0070
0070
00F0
61F0
FFE0
7FC0
3F00
ENDCHAR
STARTCHAR 075
ENCODING 75
SWIDTH 1512 0
DWIDTH 21 0
BBX 17 23 3 0
BITMAP
E00F00
E01E00
E03C00
E03800
E07800
E0F000
E1E000
E1C000
E38000
E78000
EFC000
FFC000
FDE000
F8F000
F0F000
F07800
E07800
E03C00
E01E00
E01E00
E00F00
E00F00
E00780
ENDCHAR
STARTCHAR 076
ENCODING 76
SWIDTH 1296 0
DWIDTH 18 0
BBX 14 23 3 0
BITMAP
E000
E000
E000
E000
E000
E000
E000
E000
E000
E000
E000
E000
E000
E000
E000
E000
E000
E000
E000
E000
FFFC
FFFC
FFFC
ENDCHAR
STARTCHAR 077
ENCODING 77
SWIDTH 1800 0
DWIDTH 25 0
BBX 19 23 3 0
BITMAP
E000E0
E001E0
F001E0
F001E0
F803E0
F803E0
FC07E0
FC07E0
FE0EE0
EE0EE0
EE0EE0
E71CE0
E71CE0
E3B8E0
E3B8E0
E3F0E0
E1F0E0
E1F0E0
E0E0E0
E0E0E0
E000E0
E000E0
E000E0
ENDCHAR
STARTCHAR 078
ENCODING 78
SWIDTH 1584 0
DWIDTH 22 0
BBX 17 23 3 0
BITMAP
E00780
F00780
F00780
F80780
FC0780
FC0780
FE0780
EE0780
E70780
E78780
E38780
E3C780
E1E780
E0E780
E0F780
E07780
E03F80
E03F80
E01F80
E01F80
E00F80
E00780
E00780
ENDCHAR
STARTCHAR 079
ENCODING 79
SWIDTH 1512 0
DWIDTH 21 0
BBX 16 23 2 0
BITMAP
07E0
1FF8
3FFC
3C1E
780F
700F
F007
F007
F007
F007
F007
F007
F007
F007
F007
F007
F007
700F
780F
3C1E
3FFC
1FF8
07E0
ENDCHAR
STARTCHAR 080
ENCODING 80
SWIDTH 1440 0
DWIDTH 20 0
BBX 15 23 3 0
BITMAP
FFE0
FFF8
FFFC
E01E
E00E
E00E
E00E
E00E
E00E
E00E
E01E
FFFC
FFF8
FFE0
E000
E000
E000
E000
E000
E000
E000
E000
E000
ENDCHAR
STARTCHAR 081
ENCODING 81
SWIDTH 1512 0
DWIDTH 21 0
BBX 18 23 2 0
BITMAP
07E000
1FF800
3FFC00
3C1E00
780F00
700F00
F00700
F00700
F00700
F00700
F00700
F00700
F00700
F00700
F00700
F06700
F0FF00
703F00
781F00
3C1F00
3FFFC0
1FF9C0
07E080
ENDCHAR
STARTCHAR 082
ENCODING 82
SWIDTH 1512 0
DWIDTH 21 0
BBX 16 23 3 0
BITMAP
FFF0
FFF8
FFFC
E01E
E00E
E00E
E00E
E00E
E00E
E01E
FFFC
FFF8
FFF0
E0F0
E0F0
E078
E078
E03C
E03C
E01E
E01E
E00F
E00F
ENDCHAR
STARTCHAR 083
ENCODING 83
SWIDTH 1440 0
DWIDTH 20 0
BBX 16 23 2 0
BITMAP
07F0
1FFC
3FFE
7C1E
7004
7000
F000
7000
7000
7E00
3FE0
1FFC
07FE
003E
000F
0007
0007
0007
400F
F01E
FFFE
7FFC
0FE0
ENDCHAR
STARTCHAR 084
ENCODING 84
SWIDTH 1080 0
DWIDTH 15 0
BBX 15 23 0 0
BITMAP
FFFE
FFFE
FFFE
0380
0380
0380
0380
0380
0380
0380
0380
0380
0380
0380
0380
0380
0380
0380
0380
0380
0380
0380
0380
ENDCHAR
STARTCHAR 085
ENCODING 85
SWIDTH 1512 0
DWIDTH 21 0
BBX 16 23 2 0
BITMAP
F007
F007
F007
F007
F007
F007
F007
F007
F007
F007
F007
F007
F007
F007
F007
7007
7007
7007
780F
3C1E
3FFE
1FFC
07F0
ENDCHAR
STARTCHAR 086
ENCODING 86
SWIDTH 1368 0
DWIDTH 19 0
BBX 17 23 1 0
BITMAP
E00380
E00780
F00780
700700
700F00
780F00
380E00
380E00
3C1E00
1C1C00
1C1C00
1C3C00
1E3800
0E3800
0E7800
0F7000
077000
077000
07E000
03E000
03E000
03C000
01C000
ENDCHAR
STARTCHAR 087
ENCODING 87
SWIDTH 1944 0
DWIDTH 27 0
BBX 26 23 1 0
BITMAP
E01C03C0
E01C0380
E01C0380
F01E0380
703E0780
703E0700
703E0700
70370700
38770F00
38770E00
38730E00
38E38E00
3CE38E00
1CE39C00
1CE19C00
1DC1DC00
1DC1DC00
0FC1F800
0F80F800
0F80F800
0F80F800
0780F000
07007000
ENDCHAR
STARTCHAR 088
ENCODING 88
SWIDTH 1296 0
DWIDTH 18 0
BBX 17 23 1 0
BITMAP
E00700
F00F00
781E00
381C00
3C3C00
1C3800
1E7800
0E7000
07E000
07E000
03C000
03C000
03C000
07E000
0FF000
0E7000
1E7800
1C3C00
381C00
781E00
700E00
F00F00
E00780
ENDCHAR
STARTCHAR 089
ENCODING 89
SWIDTH 1152 0
DWIDTH 16 0
BBX 16 23 0 0
BITMAP
E007
F00F
700E
781E
381C
3C3C
1C38
1E78
0E70
0FF0
07E0
07E0
03C0
03C0
03C0
03C0
03C0
03C0
03C0
03C0
03C0
03C0
03C0
ENDCHAR
STARTCHAR 090
ENCODING 90
SWIDTH 1224 0
DWIDTH 17 0
BBX 14 23 2 0
BITMAP
FFFC
FFFC
FFFC
0038
0078
00F0
00F0
01E0
01C0
03C0
0780
0780
0F00
0F00
1E00
1C00
3C00
7800
7800
F000
FFFC
FFFC
FFFC
ENDCHAR
STARTCHAR 091
ENCODING 91
SWIDTH 648 0
DWIDTH 9 0
BBX 6 30 3 -5
BITMAP
FC
FC
FC
E0
E0
E0
E0
E0
E0
E0
E0
E0
E0
E0
E0
E0
E0
E0
E0
E0
E0
E0
E0
E0
E0
E0
E0
FC
FC
FC
ENDCHAR
STARTCHAR 092
ENCODING 92
SWIDTH 864 0
DWIDTH 12 0
BBX 12 29 0 -4
BITMAP
C000
C000
E000
E000
E000
7000
7000
7000
3800
3800
3C00
1C00
1C00
0E00
0E00
0E00
0700
0700
0700
0380
0380
03C0
01C0
01C0
00E0
00E0
00E0
0070
0070
ENDCHAR
STARTCHAR 093
ENCODING 93
SWIDTH 648 0
DWIDTH 9 0
BBX 6 30 0 -5
BITMAP
FC
FC
FC
1C
1C
1C
1C
1C
1C
1C
1C
1C
1C
1C
1C
1C
1C
1C
1C
1C
1C
1C
1C
1C
1C
1C
1C
FC
FC
FC
ENDCHAR
STARTCHAR 094
ENCODING 94
SWIDTH 1152 0
DWIDTH 16 0
BBX 12 8 2 16
BITMAP
0600
0F00
0F80
1F80
3DC0
39E0
70E0
F0F0
ENDCHAR
STARTCHAR 095
ENCODING 95
SWIDTH 1008 0
DWIDTH 14 0
BBX 14 3 0 -3
BITMAP
FFFC
FFFC
FFFC
ENDCHAR
STARTCHAR 096
ENCODING 96
SWIDTH 648 0
DWIDTH 9 0
BBX 6 7 2 19
BITMAP
40
E0
F0
78
38
1C
08
ENDCHAR
STARTCHAR 097
ENCODING 97
SWIDTH 1224 0
DWIDTH 17 0
BBX 13 16 2 0
BITMAP
1F80
3FE0
7FF0
30F0
0078
0038
3FF8
7FF8
FFF8
E038
E038
E038
F078
FFF8
7FF8
1F38
ENDCHAR
STARTCHAR 098
ENCODING 98
SWIDTH 1224 0
DWIDTH 17 0
BBX 13 23 2 0
BITMAP
F000
F000
F000
F000
F000
F000
F000
F3C0
FFF0
FFF8
F878
F038
F038
F038
F038
F038
F038
F038
F038
F878
FFF8
FFF0
F3C0
ENDCHAR
STARTCHAR 099
ENCODING 99
SWIDTH 1152 0
DWIDTH 16 0
BBX 13 16 2 0
BITMAP
0FC0
3FF0
7FF8
7870
F020
E000
E000
E000
E000
E000
E000
F020
7870
7FF8
3FF0
0FC0
ENDCHAR
STARTCHAR 100
ENCODING 100
SWIDTH 1224 0
DWIDTH 17 0
BBX 13 23 2 0
BITMAP
0038
0038
0038
0038
0038
0038
0038
1F38
3FB8
7FF8
F8F8
F078
E038
E038
E038
E038
E038
E038
F078
F8F8
7FF8
3FB8
1F38
ENDCHAR
STARTCHAR 101
ENCODING 101
SWIDTH 1224 0
DWIDTH 17 0
BBX 13 16 2 0
BITMAP
0F80
3FE0
7FF0
7870
F038
E038
FFF8
FFF8
FFF8
E000
E000
F020
7870
7FF8
3FF0
0FC0
ENDCHAR
STARTCHAR 102
ENCODING 102
SWIDTH 720 0
DWIDTH 10 0
BBX 8 23 1 0
BITMAP
0F
1F
3F
38
38
38
38
FF
FF
FF
38
38
38
38
38
38
38
38
38
38
38
38
38
ENDCHAR
STARTCHAR 103
ENCODING 103
SWIDTH 1224 0
DWIDTH 17 0
BBX 13 23 2 -7
BITMAP
1F38
3FB8
7FF8
F8F8
F078
E038
E038
E038
E038
E038
E038
F078
F8F8
7FF8
3FB8
1F38
0038
0078
2070
79F0
7FE0
3FC0
0600
ENDCHAR
STARTCHAR 104
ENCODING 104
SWIDTH 1296 0
DWIDTH 18 0
BBX 14 23 2 0
BITMAP
F000
F000
F000
F000
F000
F000
F000
F3E0
FFF0
FFF8
F878
F038
F038
F03C
F03C
F03C
F03C
F03C
F03C
F03C
F03C
F03C
F03C
ENDCHAR
STARTCHAR 105
ENCODING 105
SWIDTH 576 0
DWIDTH 8 0
BBX 4 22 2 0
BITMAP
F0
F0
F0
00
00
00
F0
F0
F0
F0
F0
F0
F0
F0
F0
F0
F0
F0
F0
F0
F0
F0
ENDCHAR
STARTCHAR 106
ENCODING 106
SWIDTH 648 0
DWIDTH 9 0
BBX 6 29 0 -7
BITMAP
1C
1C
1C
00
00
00
1C
1C
1C
1C
1C
1C
1C
1C
1C
1C
1C
1C
1C
1C
1C
1C
1C
1C
1C
1C
FC
F8
E0
ENDCHAR
STARTCHAR 107
ENCODING 107
SWIDTH 1224 0
DWIDTH 17 0
BBX 14 23 2 0
BITMAP
F000
F000
F000
F000
F000
F000
F000
F03C
F078
F0F0
F1E0
F3C0
F380
F780
FF80
FDC0
F9E0
F8E0
F070
F078
F038
F03C
F01C
ENDCHAR
STARTCHAR 108
ENCODING 108
SWIDTH 648 0
DWIDTH 9 0
BBX 6 23 2 0
BITMAP
F0
F0
F0
F0
F0
F0
F0
F0
F0
F0
F0
F0
F0
F0
F0
F0
F0
F0
F0
70
7C
7C
3C
ENDCHAR
STARTCHAR 109
ENCODING 109
SWIDTH 1944 0
DWIDTH 27 0
BBX 23 16 2 0
BITMAP
F3C1F0
FFF3F8
FFFFFC
F87E3E
F03C1E
F0380E
F0380E
F0380E
F0380E
F0380E
F0380E
F0380E
F0380E
F0380E
F0380E
F0380E
ENDCHAR
STARTCHAR 110
ENCODING 110
SWIDTH 1296 0
DWIDTH 18 0
BBX 14 16 2 0
BITMAP
F3E0
FFF0
FFF8
F878
F038
F038
F03C
F03C
F03C
F03C
F03C
F03C
F03C
F03C
F03C
F03C
ENDCHAR
STARTCHAR 111
ENCODING 111
SWIDTH 1224 0
DWIDTH 17 0
BBX 13 16 2 0
BITMAP
0FC0
3FE0
7FF0
7878
F038
E038
E038
E038
E038
E038
E038
F038
7878
7FF0
3FE0
0FC0
ENDCHAR
STARTCHAR 112
ENCODING 112
SWIDTH 1224 0
DWIDTH 17 0
BBX 13 23 2 -7
BITMAP
F3C0
FFF0
FFF8
F878
F038
F038
F038
F038
F038
F038
F038
F038
F878
FFF8
FFF0
F3C0
F000
F000
F000
F000
F000
F000
F000
ENDCHAR
STARTCHAR 113
ENCODING 113
SWIDTH 1224 0
DWIDTH 17 0
BBX 13 23 2 -7
BITMAP
1F38
3FB8
7FF8
F8F8
F078
E038
E038
E038
E038
E038
E038
F078
F8F8
7FF8
3FB8
1F38
0038
0038
0038
0038
0038
0038
0038
ENDCHAR
STARTCHAR 114
ENCODING 114
SWIDTH 1008 0
DWIDTH 14 0
BBX 11 16 2 0
BITMAP
F3C0
FFE0
FFE0
F840
F000
F000
F000
F000
F000
F000
F000
F000
F000
F000
F000
F000
ENDCHAR
STARTCHAR 115
ENCODING 115
SWIDTH 1224 0
DWIDTH 17 0
BBX 14 16 1 0
BITMAP
0FE0
3FF8
3FF8
7818
7000
7000
7F80
3FF0
1FF8
003C
001C
201C
783C
FFF8
3FF8
0FE0
ENDCHAR
STARTCHAR 116
ENCODING 116
SWIDTH 720 0
DWIDTH 10 0
BBX 8 21 1 0
BITMAP
38
38
38
38
38
FF
FF
FF
38
38
38
38
38
38
38
38
38
38
3F
1F
0F
ENDCHAR
STARTCHAR 117
ENCODING 117
SWIDTH 1296 0
DWIDTH 18 0
BBX 13 16 2 0
BITMAP
F038
F038
F038
F038
F038
F038
F038
F038
F038
F038
7038
7038
7878
7FF8
3FF8
0F38
ENDCHAR
STARTCHAR 118
ENCODING 118
SWIDTH 1152 0
DWIDTH 16 0
BBX 14 16 1 0
BITMAP
E01C
F01C
7038
7038
7878
3870
3870
1CF0
1CE0
1CE0
0FC0
0FC0
07C0
0780
0780
0300
ENDCHAR
STARTCHAR 119
ENCODING 119
SWIDTH 1800 0
DWIDTH 25 0
BBX 23 16 1 0
BITMAP
F0381E
70381C
70781C
707C1C
787C38
38EE38
38EE38
38EE30
1DC770
1DC770
1D8770
0F83E0
0F83E0
0F01E0
0701C0
0701C0
ENDCHAR
STARTCHAR 120
ENCODING 120
SWIDTH 1224 0
DWIDTH 17 0
BBX 14 16 1 0
BITMAP
703C
7838
3878
1C70
1EE0
0FE0
07C0
0780
0780
0FC0
0FE0
1EE0
3C70
3878
7838
F01C
ENDCHAR
STARTCHAR 121
ENCODING 121
SWIDTH 1080 0
DWIDTH 15 0
BBX 14 23 1 -7
BITMAP
E01C
F03C
7038
7038
7878
3870
3870
1CF0
1CE0
1CE0
0FC0
0FC0
0FC0
0780
0780
0380
0700
0700
0700
1E00
3E00
3C00
3000
ENDCHAR
STARTCHAR 122
ENCODING 122
SWIDTH 1152 0
DWIDTH 16 0
BBX 12 16 2 0
BITMAP
FFF0
FFF0
FFF0
00E0
01C0
03C0
0780
0700
0E00
1E00
3C00
7800
7000
FFF0
FFF0
FFF0
ENDCHAR
STARTCHAR 123
ENCODING 123
SWIDTH 864 0
DWIDTH 12 0
BBX 9 32 2 -6
BITMAP
0380
0F80
0F80
1E00
1C00
1C00
1C00
1C00
1C00
1C00
1C00
1C00
1C00
3C00
F800
F800
F800
3C00
1C00
1C00
1C00
1C00
1C00
1C00
1C00
1C00
1C00
1C00
1E00
0F80
0780
0380
ENDCHAR
STARTCHAR 124
ENCODING 124
SWIDTH 648 0
DWIDTH 9 0
BBX 3 28 3 -3
BITMAP
E0
E0
E0
E0
E0
E0
E0
E0
E0
E0
E0
E0
E0
E0
E0
E0
E0
E0
E0
E0
E0
E0
E0
E0
E0
E0
E0
E0
ENDCHAR
STARTCHAR 125
ENCODING 125
SWIDTH 864 0
DWIDTH 12 0
BBX 8 32 1 -6
BITMAP
E0
F0
F8
38
3C
3C
3C
3C
3C
3C
3C
3C
1C
1C
1F
0F
1F
1E
1C
1C
3C
3C
3C
3C
3C
3C
3C
3C
38
F8
F0
C0
ENDCHAR
STARTCHAR 126
ENCODING 126
SWIDTH 1152 0
DWIDTH 16 0
BBX 12 5 2 8
BITMAP
3830
7E70
FFF0
E7F0
E1E0
ENDCHAR
STARTCHAR 127
ENCODING 127
SWIDTH 1656 0
DWIDTH 23 0
BBX 8 24 1 1
BITMAP
FF
FF
83
83
83
83
83
83
83
83
83
83
83
83
83
83
83
83
83
83
83
83
FF
FF
ENDCHAR
STARTCHAR 128
ENCODING 128
SWIDTH 0 0
DWIDTH 0 0
BBX 0 0 0 0
BITMAP
ENDCHAR
STARTCHAR 129
ENCODING 129
SWIDTH 0 0
DWIDTH 0 0
BBX 0 0 0 0
BITMAP
ENDCHAR
STARTCHAR 130
ENCODING 130
SWIDTH 0 0
DWIDTH 0 0
BBX 0 0 0 0
BITMAP
ENDCHAR
STARTCHAR 131
ENCODING 131
SWIDTH 0 0
DWIDTH 0 0
BBX 0 0 0 0
BITMAP
ENDCHAR
STARTCHAR 132
ENCODING 132
SWIDTH 0 0
DWIDTH 0 0
BBX 0 0 0 0
BITMAP
ENDCHAR
STARTCHAR 133
ENCODING 133
SWIDTH 0 0
DWIDTH 0 0
BBX 0 0 0 0
BITMAP
ENDCHAR
STARTCHAR 134
ENCODING 134
SWIDTH 0 0
DWIDTH 0 0
BBX 0 0 0 0
BITMAP
ENDCHAR
STARTCHAR 135
ENCODING 135
SWIDTH 0 0
DWIDTH 0 0
BBX 0 0 0 0
BITMAP
ENDCHAR
STARTCHAR 136
ENCODING 136
SWIDTH 0 0
DWIDTH 0 0
BBX 0 0 0 0
BITMAP
ENDCHAR
STARTCHAR 137
ENCODING 137
SWIDTH 0 0
DWIDTH 0 0
BBX 0 0 0 0
BITMAP
ENDCHAR
STARTCHAR 138
ENCODING 138
SWIDTH 0 0
DWIDTH 0 0
BBX 0 0 0 0
BITMAP
ENDCHAR
STARTCHAR 139
ENCODING 139
SWIDTH 0 0
DWIDTH 0 0
BBX 0 0 0 0
BITMAP
ENDCHAR
STARTCHAR 140
ENCODING 140
SWIDTH 0 0
DWIDTH 0 0
BBX 0 0 0 0
BITMAP
ENDCHAR
STARTCHAR 141
ENCODING 141
SWIDTH 0 0
DWIDTH 0 0
BBX 0 0 0 0
BITMAP
ENDCHAR
STARTCHAR 142
ENCODING 142
SWIDTH 0 0
DWIDTH 0 0
BBX 0 0 0 0
BITMAP
ENDCHAR
STARTCHAR 143
ENCODING 143
SWIDTH 0 0
DWIDTH 0 0
BBX 0 0 0 0
BITMAP
ENDCHAR
STARTCHAR 144
ENCODING 144
SWIDTH 0 0
DWIDTH 0 0
BBX 0 0 0 0
BITMAP
ENDCHAR
STARTCHAR 145
ENCODING 145
SWIDTH 0 0
DWIDTH 0 0
BBX 0 0 0 0
BITMAP
ENDCHAR
STARTCHAR 146
ENCODING 146
SWIDTH 0 0
DWIDTH 0 0
BBX 0 0 0 0
BITMAP
ENDCHAR
STARTCHAR 147
ENCODING 147
SWIDTH 0 0
DWIDTH 0 0
BBX 0 0 0 0
BITMAP
ENDCHAR
STARTCHAR 148
ENCODING 148
SWIDTH 0 0
DWIDTH 0 0
BBX 0 0 0 0
BITMAP
ENDCHAR
STARTCHAR 149
ENCODING 149
SWIDTH 0 0
DWIDTH 0 0
BBX 0 0 0 0
BITMAP
ENDCHAR
STARTCHAR 150
ENCODING 150
SWIDTH 0 0
DWIDTH 0 0
BBX 0 0 0 0
BITMAP
ENDCHAR
STARTCHAR 151
ENCODING 151
SWIDTH 0 0
DWIDTH 0 0
BBX 0 0 0 0
BITMAP
ENDCHAR
STARTCHAR 152
ENCODING 152
SWIDTH 0 0
DWIDTH 0 0
BBX 0 0 0 0
BITMAP
ENDCHAR
STARTCHAR 153
ENCODING 153
SWIDTH 0 0
DWIDTH 0 0
BBX 0 0 0 0
BITMAP
ENDCHAR
STARTCHAR 154
ENCODING 154
SWIDTH 0 0
DWIDTH 0 0
BBX 0 0 0 0
BITMAP
ENDCHAR
STARTCHAR 155
ENCODING 155
SWIDTH 0 0
DWIDTH 0 0
BBX 0 0 0 0
BITMAP
ENDCHAR
STARTCHAR 156
ENCODING 156
SWIDTH 0 0
DWIDTH 0 0
BBX 0 0 0 0
BITMAP
ENDCHAR
STARTCHAR 157
ENCODING 157
SWIDTH 0 0
DWIDTH 0 0
BBX 0 0 0 0
BITMAP
ENDCHAR
STARTCHAR 158
ENCODING 158
SWIDTH 0 0
DWIDTH 0 0
BBX 0 0 0 0
BITMAP
ENDCHAR
STARTCHAR 159
ENCODING 159
SWIDTH 0 0
DWIDTH 0 0
BBX 0 0 0 0
BITMAP
ENDCHAR
STARTCHAR 160
ENCODING 160
SWIDTH 360 0
DWIDTH 5 0
BBX 0 0 0 0
BITMAP
ENDCHAR
STARTCHAR 161
ENCODING 161
SWIDTH 504 0
DWIDTH 7 0
BBX 3 23 2 -7
BITMAP
E0
E0
E0
00
00
00
E0
E0
E0
E0
E0
E0
E0
E0
E0
E0
E0
E0
E0
E0
E0
E0
E0
ENDCHAR
STARTCHAR 162
ENCODING 162
SWIDTH 1080 0
DWIDTH 15 0
BBX 12 22 2 -3
BITMAP
0700
0700
0700
0F80
3FE0
7FF0
7F70
F720
E700
E700
E700
E700
E700
E700
F720
7FF0
7FF0
3FE0
0F80
0700
0700
0700
ENDCHAR
STARTCHAR 163
ENCODING 163
SWIDTH 1368 0
DWIDTH 19 0
BBX 17 23 1 0
BITMAP
01F800
07FE00
0FFE00
1F0F00
1E0700
1C0780
1C0780
1C0000
1C0000
1C0000
1C0000
1C0000
7FF800
7FF800
1C0000
1C0000
1C0000
1C0000
1C0000
380000
FFFF80
FFFF80
FFFF80
ENDCHAR
STARTCHAR 164
ENCODING 164
SWIDTH 1296 0
DWIDTH 18 0
BBX 15 15 2 4
BITMAP
6008
FFDC
FFFE
7FFC
7878
7038
701C
701C
701C
7038
7878
7FFC
FFFE
FFDC
6008
ENDCHAR
STARTCHAR 165
ENCODING 165
SWIDTH 1152 0
DWIDTH 16 0
BBX 16 23 0 0
BITMAP
E007
F00F
700E
781E
381C
3C3C
1C38
1E78
0E70
0F70
07E0
07E0
03C0
03C0
03C0
1FF8
1FF8
03C0
03C0
1FF8
1FF8
03C0
03C0
ENDCHAR
STARTCHAR 166
ENCODING 166
SWIDTH 648 0
DWIDTH 9 0
BBX 3 28 3 -3
BITMAP
E0
E0
E0
E0
E0
E0
E0
E0
E0
E0
E0
00
00
00
00
00
00
E0
E0
E0
E0
E0
E0
E0
E0
E0
E0
E0
ENDCHAR
STARTCHAR 167
ENCODING 167
SWIDTH 1296 0
DWIDTH 18 0
BBX 15 26 2 -3
BITMAP
0FC0
3FF8
7FFC
7878
7010
7000
7800
7C00
3FE0
7FF8
FFFC
E03E
E01E
E00E
E00E
FC1E
7FFC
1FF8
01F8
003C
001C
603C
707C
FFF8
7FF0
1FC0
ENDCHAR
STARTCHAR 168
ENCODING 168
SWIDTH 864 0
DWIDTH 12 0
BBX 10 3 1 20
BITMAP
F1C0
F1C0
F1C0
ENDCHAR
STARTCHAR 169
ENCODING 169
SWIDTH 1584 0
DWIDTH 22 0
BBX 19 19 2 6
BITMAP
03F800
1FFE00
3C0F00
700380
71F1C0
E3F9C0
E7F8C0
C710C0
C700E0
C600E0
C700E0
E710C0
E3F9C0
F1F1C0
7003C0
7C0F80
3FFF00
1FFE00
03F800
ENDCHAR
STARTCHAR 170
ENCODING 170
SWIDTH 792 0
DWIDTH 11 0
BBX 8 10 2 13
BITMAP
7C
FE
47
07
7F
FF
C7
C7
FF
7F
ENDCHAR
STARTCHAR 171
ENCODING 171
SWIDTH 1152 0
DWIDTH 16 0
BBX 14 11 1 3
BITMAP
0F3C
1E38
3C70
78E0
71E0
E3C0
71E0
78E0
3C70
1E38
0F3C
ENDCHAR
STARTCHAR 172
ENCODING 172
SWIDTH 1224 0
DWIDTH 17 0
BBX 13 7 2 6
BITMAP
FFF8
FFF8
FFF8
0078
0078
0078
0078
ENDCHAR
STARTCHAR 173
ENCODING 173
SWIDTH 1080 0
DWIDTH 15 0
BBX 11 3 2 7
BITMAP
FFE0
FFE0
FFE0
ENDCHAR
STARTCHAR 174
ENCODING 174
SWIDTH 1584 0
DWIDTH 22 0
BBX 19 20 2 5
BITMAP
03F800
0FFE00
3C0F00
780380
700180
E7F1C0
E7F8C0
C718C0
C718E0
C718E0
C7F8E0
C7F0E0
E730C0
E739C0
F719C0
780780
7C0F80
3FFF00
0FFE00
03F800
ENDCHAR
STARTCHAR 175
ENCODING 175
SWIDTH 1008 0
DWIDTH 14 0
BBX 12 3 1 20
BITMAP
FFF0
FFF0
FFF0
ENDCHAR
STARTCHAR 176
ENCODING 176
SWIDTH 864 0
DWIDTH 12 0
BBX 9 9 1 14
BITMAP
3E00
7F80
7F80
E380
E180
E180
6380
7F00
3E00
ENDCHAR
STARTCHAR 177
ENCODING 177
SWIDTH 1224 0
DWIDTH 17 0
BBX 13 13 2 4
BITMAP
0700
0700
0700
0700
FFF8
FFF8
FFF8
0700
0700
0700
FFF8
FFF8
FFF8
ENDCHAR
STARTCHAR 178
ENCODING 178
SWIDTH 720 0
DWIDTH 10 0
BBX 7 10 2 13
BITMAP
78
FC
CE
0E
1C
3C
78
F0
FE
FE
ENDCHAR
STARTCHAR 179
ENCODING 179
SWIDTH 792 0
DWIDTH 11 0
BBX 7 10 2 13
BITMAP
7C
FE
CE
0E
1C
1E
0E
C6
FE
7C
ENDCHAR
STARTCHAR 180
ENCODING 180
SWIDTH 648 0
DWIDTH 9 0
BBX 7 7 1 19
BITMAP
08
0E
1C
3C
78
F0
20
ENDCHAR
STARTCHAR 181
ENCODING 181
SWIDTH 1368 0
DWIDTH 19 0
BBX 16 20 2 -4
BITMAP
F038
F038
F038
F038
F038
F038
F038
F038
F038
F038
F038
F038
F87C
FFFF
FFDF
F78F
F000
F000
F000
F000
ENDCHAR
STARTCHAR 182
ENCODING 182
SWIDTH 1584 0
DWIDTH 22 0
BBX 20 27 1 -4
BITMAP
07FFF0
1FFFF0
3FFFF0
7FF1C0
7FF1C0
FFF1C0
FFF1C0
FFF1C0
FFF1C0
FFF1C0
7FF1C0
7FF1C0
3FF1C0
3FF1C0
0FF1C0
0071C0
0071C0
0071C0
0071C0
0071C0
0071C0
0071C0
0071C0
0071C0
0071C0
0071C0
0071C0
ENDCHAR
STARTCHAR 183
ENCODING 183
SWIDTH 504 0
DWIDTH 7 0
BBX 3 3 2 7
BITMAP
E0
E0
E0
ENDCHAR
STARTCHAR 184
ENCODING 184
SWIDTH 648 0
DWIDTH 9 0
BBX 7 8 1 -7
BITMAP
30
30
38
3C
0E
1E
7E
F8
ENDCHAR
STARTCHAR 185
ENCODING 185
SWIDTH 576 0
DWIDTH 8 0
BBX 4 10 2 13
BITMAP
70
F0
F0
B0
30
30
30
30
30
30
ENDCHAR
STARTCHAR 186
ENCODING 186
SWIDTH 792 0
DWIDTH 11 0
BBX 8 10 2 13
BITMAP
7C
FE
EE
C7
C7
C7
C7
EE
FE
7C
ENDCHAR
STARTCHAR 187
ENCODING 187
SWIDTH 1152 0
DWIDTH 16 0
BBX 14 11 1 3
BITMAP
F3C0
79E0
38F0
1C78
0E3C
0F1C
0E3C
1C78
38F0
79E0
F3C0
ENDCHAR
STARTCHAR 188
ENCODING 188
SWIDTH 1584 0
DWIDTH 22 0
BBX 18 23 2 0
BITMAP
700700
F00E00
F00C00
B01C00
301800
303800
303000
307000
30E000
30E000
01C000
01C000
038000
038000
070700
060600
0E0E00
0C0E00
1C0DC0
181DC0
381FC0
701FC0
7001C0
ENDCHAR
STARTCHAR 189
ENCODING 189
SWIDTH 1584 0
DWIDTH 22 0
BBX 18 23 2 0
BITMAP
700700
F00E00
F00C00
B01C00
301800
303800
303000
307000
30E000
30E000
01C000
01C000
038000
038780
070FC0
061DC0
0E01C0
0C01C0
1C0380
180700
380E00
701FC0
701FC0
ENDCHAR
STARTCHAR 190
ENCODING 190
SWIDTH 1656 0
DWIDTH 23 0
BBX 19 23 2 0
BITMAP
7C0380
FE0380
CE0700
0E0600
1C0E00
1E0C00
061C00
C61800
FE3800
7C7000
007000
00E000
00E000
01C000
01C300
038700
038700
070600
060EC0
0E0CC0
0C1FE0
1C1FE0
1800C0
ENDCHAR
STARTCHAR 191
ENCODING 191
SWIDTH 936 0
DWIDTH 13 0
BBX 12 23 1 -7
BITMAP
0700
0700
0700
0000
0000
0000
0700
0700
0700
0F00
0E00
1E00
3C00
3800
7000
7000
F070
F070
7070
78F0
7FE0
3FC0
0F80
ENDCHAR
STARTCHAR 192
ENCODING 192
SWIDTH 1512 0
DWIDTH 21 0
BBX 19 30 1 0
BITMAP
020000
070000
078000
03C000
01C000
008000
000000
00E000
01E000
01F000
01F000
03F000
03B800
03B800
073800
071C00
071C00
0E1E00
0E0E00
1E0E00
1C0F00
1C0700
3FFF00
3FFF80
3FFF80
780380
7003C0
7001C0
F001E0
E001E0
ENDCHAR
STARTCHAR 193
ENCODING 193
SWIDTH 1512 0
DWIDTH 21 0
BBX 19 31 1 0
BITMAP
000800
001C00
003C00
00F800
00F000
004000
000000
000000
00E000
01E000
01F000
01F000
03F000
03B800
03B800
073800
071C00
071C00
0E1E00
0E0E00
1E0E00
1C0F00
1C0700
3FFF00
3FFF80
3FFF80
780380
7003C0
7001C0
F001E0
E001E0
ENDCHAR
STARTCHAR 194
ENCODING 194
SWIDTH 1512 0
DWIDTH 21 0
BBX 19 30 1 0
BITMAP
004000
01E000
03F800
0FBC00
020800
000000
000000
00E000
01E000
01F000
01F000
03F000
03B800
03B800
073800
071C00
071C00
0E1E00
0E0E00
1E0E00
1C0F00
1C0700
3FFF00
3FFF80
3FFF80
780380
7003C0
7001C0
F001E0
E001E0
ENDCHAR
STARTCHAR 195
ENCODING 195
SWIDTH 1512 0
DWIDTH 21 0
BBX 19 29 1 0
BITMAP
07C600
0FFE00
1FFE00
1C7C00
000000
000000
00E000
01E000
01F000
01F000
03F000
03B800
03B800
073800
071C00
071C00
0E1E00
0E0E00
1E0E00
1C0F00
1C0700
3FFF00
3FFF80
3FFF80
780380
7003C0
7001C0
F001E0
E001E0
ENDCHAR
STARTCHAR 196
ENCODING 196
SWIDTH 1512 0
DWIDTH 21 0
BBX 19 28 1 0
BITMAP
071C00
071C00
071C00
000000
000000
00E000
01E000
01F000
01F000
03F000
03B800
03B800
073800
071C00
071C00
0E1E00
0E0E00
1E0E00
1C0F00
1C0700
3FFF00
3FFF80
3FFF80
780380
7003C0
7001C0
F001E0
E001E0
ENDCHAR
STARTCHAR 197
ENCODING 197
SWIDTH 1512 0
DWIDTH 21 0
BBX 19 30 1 0
BITMAP
01F000
03F800
031800
031800
031800
03F800
03F000
00E000
01E000
01F000
01F000
03F000
03B800
03B800
073800
071C00
071C00
0E1E00
0E0E00
1E0E00
1C0F00
1C0700
3FFF00
3FFF80
3FFF80
780380
7003C0
7001C0
F001E0
E001E0
ENDCHAR
STARTCHAR 198
ENCODING 198
SWIDTH 2232 0
DWIDTH 31 0
BBX 30 23 0 0
BITMAP
000FFFFC
000FFFFC
001FFFFC
001DC000
003DC000
0039C000
0079C000
00F1C000
00E1C000
01E1C000
01C1FFF0
03C1FFF0
0381FFF0
0781C000
0701C000
0FFFC000
0FFFC000
1FFFC000
3C01C000
3801C000
7801FFFC
7001FFFC
F001FFFC
ENDCHAR
STARTCHAR 199
ENCODING 199
SWIDTH 1440 0
DWIDTH 20 0
BBX 16 30 2 -7
BITMAP
07E0
1FF8
3FFC
3C3E
781E
700F
7007
F000
F000
F000
F000
F000
F000
F000
F000
F000
F007
700F
780E
3C3E
3FFC
1FF8
07E0
0180
0180
01E0
01F0
0070
0070
03F0
ENDCHAR
STARTCHAR 200
ENCODING 200
SWIDTH 1368 0
DWIDTH 19 0
BBX 14 30 3 0
BITMAP
0800
1C00
1E00
0F00
0700
0200
0000
FFFC
FFFC
FFFC
E000
E000
E000
E000
E000
E000
E000
FFF8
FFF8
FFF8
E000
E000
E000
E000
E000
E000
E000
FFFC
FFFC
FFFC
ENDCHAR
STARTCHAR 201
ENCODING 201
SWIDTH 1368 0
DWIDTH 19 0
BBX 14 31 3 0
BITMAP
0020
0070
00F0
01E0
03C0
0100
0000
0000
FFFC
FFFC
FFFC
E000
E000
E000
E000
E000
E000
E000
FFF8
FFF8
FFF8
E000
E000
E000
E000
E000
E000
E000
FFFC
FFFC
FFFC
ENDCHAR
STARTCHAR 202
ENCODING 202
SWIDTH 1368 0
DWIDTH 19 0
BBX 14 30 3 0
BITMAP
0100
0780
0FE0
3EF0
0820
0000
0000
FFFC
FFFC
FFFC
E000
E000
E000
E000
E000
E000
E000
FFF8
FFF8
FFF8
E000
E000
E000
E000
E000
E000
E000
FFFC
FFFC
FFFC
ENDCHAR
STARTCHAR 203
ENCODING 203
SWIDTH 1368 0
DWIDTH 19 0
BBX 14 28 3 0
BITMAP
1C70
1C70
1C70
0000
0000
FFFC
FFFC
FFFC
E000
E000
E000
E000
E000
E000
E000
FFF8
FFF8
FFF8
E000
E000
E000
E000
E000
E000
E000
FFFC
FFFC
FFFC
ENDCHAR
STARTCHAR 204
ENCODING 204
SWIDTH 648 0
DWIDTH 9 0
BBX 6 30 0 0
BITMAP
40
E0
F0
78
38
10
00
1C
1C
1C
1C
1C
1C
1C
1C
1C
1C
1C
1C
1C
1C
1C
1C
1C
1C
1C
1C
1C
1C
1C
ENDCHAR
STARTCHAR 205
ENCODING 205
SWIDTH 648 0
DWIDTH 9 0
BBX 6 31 3 0
BITMAP
08
1C
3C
78
F0
40
00
00
E0
E0
E0
E0
E0
E0
E0
E0
E0
E0
E0
E0
E0
E0
E0
E0
E0
E0
E0
E0
E0
E0
E0
ENDCHAR
STARTCHAR 206
ENCODING 206
SWIDTH 648 0
DWIDTH 9 0
BBX 9 30 0 0
BITMAP
0800
3C00
7F00
F780
4100
0000
0000
1C00
1C00
1C00
1C00
1C00
1C00
1C00
1C00
1C00
1C00
1C00
1C00
1C00
1C00
1C00
1C00
1C00
1C00
1C00
1C00
1C00
1C00
1C00
ENDCHAR
STARTCHAR 207
ENCODING 207
SWIDTH 648 0
DWIDTH 9 0
BBX 9 28 0 0
BITMAP
E380
E380
E380
0000
0000
1C00
1C00
1C00
1C00
1C00
1C00
1C00
1C00
1C00
1C00
1C00
1C00
1C00
1C00
1C00
1C00
1C00
1C00
1C00
1C00
1C00
1C00
1C00
ENDCHAR
STARTCHAR 208
ENCODING 208
SWIDTH 1584 0
DWIDTH 22 0
BBX 18 23 1 0
BITMAP
1FF800
1FFE00
1FFF00
1C0780
1C03C0
1C01C0
1C01C0
1C01C0
1C01C0
1C01C0
FFE1C0
FFE1C0
FFE1C0
1C01C0
1C01C0
1C01C0
1C01C0
1C01C0
1C03C0
1C0780
1FFF00
1FFE00
1FF800
ENDCHAR
STARTCHAR 209
ENCODING 209
SWIDTH 1584 0
DWIDTH 22 0
BBX 17 29 3 0
BITMAP
0F8C00
1FFC00
3FFC00
38F800
000000
000000
E00780
F00780
F00780
F80780
FC0780
FC0780
FE0780
EE0780
E70780
E78780
E38780
E3C780
E1E780
E0E780
E0F780
E07780
E03F80
E03F80
E01F80
E01F80
E00F80
E00780
E00780
ENDCHAR
STARTCHAR 210
ENCODING 210
SWIDTH 1512 0
DWIDTH 21 0
BBX 16 30 2 0
BITMAP
0400
0E00
0F00
0780
0380
0100
0000
07E0
1FF8
3FFC
3C1E
780F
700F
F007
F007
F007
F007
F007
F007
F007
F007
F007
F007
F007
700F
780F
3C1E
3FFC
1FF8
07E0
ENDCHAR
STARTCHAR 211
ENCODING 211
SWIDTH 1512 0
DWIDTH 21 0
BBX 16 30 2 0
BITMAP
0010
0038
0078
01F0
01C0
0080
0000
07E0
1FF8
3FFC
3C1E
780F
700F
F007
F007
F007
F007
F007
F007
F007
F007
F007
F007
F007
700F
780F
3C1E
3FFC
1FF8
07E0
ENDCHAR
STARTCHAR 212
ENCODING 212
SWIDTH 1512 0
DWIDTH 21 0
BBX 16 29 2 0
BITMAP
0080
03C0
07F0
1F78
0410
0000
07E0
1FF8
3FFC
3C1E
780F
700F
F007
F007
F007
F007
F007
F007
F007
F007
F007
F007
F007
700F
780F
3C1E
3FFC
1FF8
07E0
ENDCHAR
STARTCHAR 213
ENCODING 213
SWIDTH 1512 0
DWIDTH 21 0
BBX 16 28 2 0
BITMAP
0F8C
1FFC
3FFC
38F8
0000
07E0
1FF8
3FFC
3C1E
780F
700F
F007
F007
F007
F007
F007
F007
F007
F007
F007
F007
F007
700F
780F
3C1E
3FFC
1FF8
07E0
ENDCHAR
STARTCHAR 214
ENCODING 214
SWIDTH 1512 0
DWIDTH 21 0
BBX 16 28 2 0
BITMAP
0E38
0E38
0E38
0000
0000
07E0
1FF8
3FFC
3C1E
780F
700F
F007
F007
F007
F007
F007
F007
F007
F007
F007
F007
F007
700F
780F
3C1E
3FFC
1FF8
07E0
ENDCHAR
STARTCHAR 215
ENCODING 215
SWIDTH 1152 0
DWIDTH 16 0
BBX 12 13 2 4
BITMAP
2040
70E0
F8F0
79E0
3FC0
1F80
0F00
1F80
3FC0
7DE0
F8F0
7060
2000
ENDCHAR
STARTCHAR 216
ENCODING 216
SWIDTH 1512 0
DWIDTH 21 0
BBX 16 27 2 -2
BITMAP
0007
0006
07EE
1FFC
3FFC
3C1E
781F
703F
F037
F077
F067
F0E7
F0C7
F1C7
F187
F387
F307
F707
F607
7E0F
7C0F
3C1E
3FFC
3FF8
37E0
3000
7000
ENDCHAR
STARTCHAR 217
ENCODING 217
SWIDTH 1512 0
DWIDTH 21 0
BBX 16 30 2 0
BITMAP
0400
0E00
0F00
0780
0380
0080
0000
F007
F007
F007
F007
F007
F007
F007
F007
F007
F007
F007
F007
F007
F007
F007
7007
7007
7007
780F
3C1E
3FFE
1FFC
07F0
ENDCHAR
STARTCHAR 218
ENCODING 218
SWIDTH 1512 0
DWIDTH 21 0
BBX 16 31 2 0
BITMAP
0010
0038
0078
00F0
01E0
0080
0000
0000
F007
F007
F007
F007
F007
F007
F007
F007
F007
F007
F007
F007
F007
F007
F007
7007
7007
7007
780F
3C1E
3FFE
1FFC
07F0
ENDCHAR
STARTCHAR 219
ENCODING 219
SWIDTH 1512 0
DWIDTH 21 0
BBX 16 30 2 0
BITMAP
0080
03E0
07F0
0F78
0410
0000
0000
F007
F007
F007
F007
F007
F007
F007
F007
F007
F007
F007
F007
F007
F007
F007
7007
7007
7007
780F
3C1E
3FFE
1FFC
07F0
ENDCHAR
STARTCHAR 220
ENCODING 220
SWIDTH 1512 0
DWIDTH 21 0
BBX 16 28 2 0
BITMAP
0E38
0E38
0E38
0000
0000
F007
F007
F007
F007
F007
F007
F007
F007
F007
F007
F007
F007
F007
F007
F007
7007
7007
7007
780F
3C1E
3FFE
1FFC
07F0
ENDCHAR
STARTCHAR 221
ENCODING 221
SWIDTH 1152 0
DWIDTH 16 0
BBX 16 31 0 0
BITMAP
0020
0070
00F8
01E0
01C0
0080
0000
0000
E007
F00F
700E
781E
381C
3C3C
1C38
1E78
0E70
0FF0
07E0
07E0
03C0
03C0
03C0
03C0
03C0
03C0
03C0
03C0
03C0
03C0
03C0
ENDCHAR
STARTCHAR 222
ENCODING 222
SWIDTH 1440 0
DWIDTH 20 0
BBX 15 23 3 0
BITMAP
E000
E000
E000
E000
FFE0
FFF8
FFFC
E01E
E00E
E00E
E00E
E00E
E00E
E00E
E01E
FFFC
FFF8
FFE0
E000
E000
E000
E000
E000
ENDCHAR
STARTCHAR 223
ENCODING 223
SWIDTH 1296 0
DWIDTH 18 0
BBX 13 23 2 0
BITMAP
0FC0
1FF0
3FF8
7878
7038
7038
7038
F038
F1F0
F1E0
F1F8
F038
F038
F038
F038
F038
F038
F038
F038
F038
F1F8
F1F8
F1E0
ENDCHAR
STARTCHAR 224
ENCODING 224
SWIDTH 1224 0
DWIDTH 17 0
BBX 13 26 2 0
BITMAP
1000
3800
3C00
1C00
0E00
0700
0200
0000
0000
0000
1F80
3FE0
7FF0
30F0
0078
0038
3FF8
7FF8
FFF8
E038
E038
E038
F078
FFF8
7FF8
1F38
ENDCHAR
STARTCHAR 225
ENCODING 225
SWIDTH 1224 0
DWIDTH 17 0
BBX 13 26 2 0
BITMAP
0040
00E0
01E0
03C0
0780
0700
0200
0000
0000
0000
1F80
3FE0
7FF0
30F0
0078
0038
3FF8
7FF8
FFF8
E038
E038
E038
F078
FFF8
7FF8
1F38
ENDCHAR
STARTCHAR 226
ENCODING 226
SWIDTH 1224 0
DWIDTH 17 0
BBX 13 25 2 0
BITMAP
0200
0700
0F80
1DC0
38E0
1040
0000
0000
0000
1F80
3FE0
7FF0
30F0
0078
0038
3FF8
7FF8
FFF8
E038
E038
E038
F078
FFF8
7FF8
1F38
ENDCHAR
STARTCHAR 227
ENCODING 227
SWIDTH 1224 0
DWIDTH 17 0
BBX 13 24 2 0
BITMAP
3C70
3E70
7FF0
73E0
61C0
0000
0000
0000
1F80
3FE0
7FF0
30F0
0078
0038
3FF8
7FF8
FFF8
E038
E038
E038
F078
FFF8
7FF8
1F38
ENDCHAR
STARTCHAR 228
ENCODING 228
SWIDTH 1224 0
DWIDTH 17 0
BBX 13 22 2 0
BITMAP
38E0
38E0
38E0
0000
0000
0000
1F80
3FE0
7FF0
30F0
0078
0038
3FF8
7FF8
FFF8
E038
E038
E038
F078
FFF8
7FF8
1F38
ENDCHAR
STARTCHAR 229
ENCODING 229
SWIDTH 1224 0
DWIDTH 17 0
BBX 13 26 2 0
BITMAP
0F80
1FC0
18C0
18C0
18C0
1FC0
0F80
0000
0000
0000
1F80
3FE0
7FF0
30F0
0078
0038
3FF8
7FF8
FFF8
E038
E038
E038
F078
FFF8
7FF8
1F38
ENDCHAR
STARTCHAR 230
ENCODING 230
SWIDTH 1944 0
DWIDTH 27 0
BBX 23 16 2 0
BITMAP
1F83E0
3FCFF8
7FEFF8
307C3C
00781C
00380E
00300E
3FFFFE
7FFFFE
E03000
E07800
E07808
E0FC1C
FFEFFC
7FC7F8
3F03E0
ENDCHAR
STARTCHAR 231
ENCODING 231
SWIDTH 1152 0
DWIDTH 16 0
BBX 13 23 2 -7
BITMAP
0FC0
3FF0
7FF8
7870
F020
E000
E000
E000
E000
E000
E000
F020
7870
7FF8
3FF0
0FC0
0700
0780
07C0
01C0
09C0
0FC0
0F80
ENDCHAR
STARTCHAR 232
ENCODING 232
SWIDTH 1224 0
DWIDTH 17 0
BBX 13 26 2 0
BITMAP
1000
3800
3C00
1E00
0F00
0700
0200
0000
0000
0000
0F80
3FE0
7FF0
7870
F038
E038
FFF8
FFF8
FFF8
E000
E000
F020
7870
7FF8
3FF0
0FC0
ENDCHAR
STARTCHAR 233
ENCODING 233
SWIDTH 1224 0
DWIDTH 17 0
BBX 13 26 2 0
BITMAP
0040
00E0
01E0
01C0
0380
0700
0200
0000
0000
0000
0F80
3FE0
7FF0
7870
F038
E038
FFF8
FFF8
FFF8
E000
E000
F020
7870
7FF8
3FF0
0FC0
ENDCHAR
STARTCHAR 234
ENCODING 234
SWIDTH 1224 0
DWIDTH 17 0
BBX 13 25 2 0
BITMAP
0200
0700
0F80
1DE0
38F0
1040
0000
0000
0000
0F80
3FE0
7FF0
7870
F038
E038
FFF8
FFF8
FFF8
E000
E000
F020
7870
7FF8
3FF0
0FC0
ENDCHAR
STARTCHAR 235
ENCODING 235
SWIDTH 1224 0
DWIDTH 17 0
BBX 13 22 2 0
BITMAP
38F0
38F0
38F0
0000
0000
0000
0F80
3FE0
7FF0
7870
F038
E038
FFF8
FFF8
FFF8
E000
E000
F020
7870
7FF8
3FF0
0FC0
ENDCHAR
STARTCHAR 236
ENCODING 236
SWIDTH 576 0
DWIDTH 8 0
BBX 6 26 0 0
BITMAP
40
C0
E0
F0
78
3C
10
00
00
00
3C
3C
3C
3C
3C
3C
3C
3C
3C
3C
3C
3C
3C
3C
3C
3C
ENDCHAR
STARTCHAR 237
ENCODING 237
SWIDTH 576 0
DWIDTH 8 0
BBX 6 26 2 0
BITMAP
08
0C
1C
3C
78
F0
20
00
00
00
F0
F0
F0
F0
F0
F0
F0
F0
F0
F0
F0
F0
F0
F0
F0
F0
ENDCHAR
STARTCHAR 238
ENCODING 238
SWIDTH 576 0
DWIDTH 8 0
BBX 8 25 0 0
BITMAP
08
3C
7E
FF
E3
C1
00
00
00
3C
3C
3C
3C
3C
3C
3C
3C
3C
3C
3C
3C
3C
3C
3C
3C
ENDCHAR
STARTCHAR 239
ENCODING 239
SWIDTH 576 0
DWIDTH 8 0
BBX 8 22 0 0
BITMAP
C3
C3
C3
00
00
00
3C
3C
3C
3C
3C
3C
3C
3C
3C
3C
3C
3C
3C
3C
3C
3C
ENDCHAR
STARTCHAR 240
ENCODING 240
SWIDTH 1224 0
DWIDTH 17 0
BBX 13 23 2 0
BITMAP
0730
07F0
3FF8
3FC0
31E0
00E0
0070
1F70
3FF0
7FF0
70F8
F078
E038
E038
E038
E038
E038
E038
F078
70F0
7FF0
3FE0
0F80
ENDCHAR
STARTCHAR 241
ENCODING 241
SWIDTH 1296 0
DWIDTH 18 0
BBX 14 24 2 0
BITMAP
1C30
3F30
3FF0
33F0
30E0
0000
0000
0000
F3E0
FFF0
FFF8
F878
F038
F038
F03C
F03C
F03C
F03C
F03C
F03C
F03C
F03C
F03C
F03C
ENDCHAR
STARTCHAR 242
ENCODING 242
SWIDTH 1224 0
DWIDTH 17 0
BBX 13 26 2 0
BITMAP
1000
3800
3C00
1E00
0F00
0700
0200
0000
0000
0000
0FC0
3FE0
7FF0
7878
F038
E038
E038
E038
E038
E038
E038
F038
7878
7FF0
3FE0
0FC0
ENDCHAR
STARTCHAR 243
ENCODING 243
SWIDTH 1224 0
DWIDTH 17 0
BBX 13 26 2 0
BITMAP
0040
00E0
01E0
01C0
0380
0700
0200
0000
0000
0000
0FC0
3FE0
7FF0
7878
F038
E038
E038
E038
E038
E038
E038
F038
7878
7FF0
3FE0
0FC0
ENDCHAR
STARTCHAR 244
ENCODING 244
SWIDTH 1224 0
DWIDTH 17 0
BBX 13 25 2 0
BITMAP
0200
0700
0F80
1DE0
38F0
1040
0000
0000
0000
0FC0
3FE0
7FF0
7878
F038
E038
E038
E038
E038
E038
E038
F038
7878
7FF0
3FE0
0FC0
ENDCHAR
STARTCHAR 245
ENCODING 245
SWIDTH 1224 0
DWIDTH 17 0
BBX 13 24 2 0
BITMAP
1C30
3F30
7FF0
73F0
71E0
0000
0000
0000
0FC0
3FE0
7FF0
7878
F038
E038
E038
E038
E038
E038
E038
F038
7878
7FF0
3FE0
0FC0
ENDCHAR
STARTCHAR 246
ENCODING 246
SWIDTH 1224 0
DWIDTH 17 0
BBX 13 22 2 0
BITMAP
38F0
38F0
38F0
0000
0000
0000
0FC0
3FE0
7FF0
7878
F038
E038
E038
E038
E038
E038
E038
F038
7878
7FF0
3FE0
0FC0
ENDCHAR
STARTCHAR 247
ENCODING 247
SWIDTH 1080 0
DWIDTH 15 0
BBX 11 13 2 4
BITMAP
0F00
0F00
0F00
0000
0000
FFE0
FFE0
FFE0
0000
0000
0F00
0F00
0F00
ENDCHAR
STARTCHAR 248
ENCODING 248
SWIDTH 1224 0
DWIDTH 17 0
BBX 13 20 2 -2
BITMAP
0030
0030
0FE0
3FE0
7FF0
78F8
F1F8
E1B8
E3B8
E338
E338
E638
E638
FC38
7C78
7FF0
3FE0
3FC0
3000
3000
ENDCHAR
STARTCHAR 249
ENCODING 249
SWIDTH 1296 0
DWIDTH 18 0
BBX 13 26 2 0
BITMAP
1000
3800
3C00
1E00
0F00
0700
0200
0000
0000
0000
F038
F038
F038
F038
F038
F038
F038
F038
F038
F038
7038
7038
7878
7FF8
3FF8
0F38
ENDCHAR
STARTCHAR 250
ENCODING 250
SWIDTH 1296 0
DWIDTH 18 0
BBX 13 26 2 0
BITMAP
0040
00E0
00E0
01C0
0380
0780
0100
0000
0000
0000
F038
F038
F038
F038
F038
F038
F038
F038
F038
F038
7038
7038
7878
7FF8
3FF8
0F38
ENDCHAR
STARTCHAR 251
ENCODING 251
SWIDTH 1296 0
DWIDTH 18 0
BBX 13 25 2 0
BITMAP
0200
0780
0FC0
1FE0
38F0
1060
0000
0000
0000
F038
F038
F038
F038
F038
F038
F038
F038
F038
F038
7038
7038
7878
7FF8
3FF8
0F38
ENDCHAR
STARTCHAR 252
ENCODING 252
SWIDTH 1296 0
DWIDTH 18 0
BBX 13 22 2 0
BITMAP
3870
3870
3870
0000
0000
0000
F038
F038
F038
F038
F038
F038
F038
F038
F038
F038
7038
7038
7878
7FF8
3FF8
0F38
ENDCHAR
STARTCHAR 253
ENCODING 253
SWIDTH 1080 0
DWIDTH 15 0
BBX 14 33 1 -7
BITMAP
0040
0070
00F0
01E0
03C0
0780
0100
0000
0000
0000
E01C
F03C
7038
7038
7878
3870
3870
1CF0
1CE0
1CE0
0FC0
0FC0
0FC0
0780
0780
0380
0700
0700
0700
1E00
3E00
3C00
3000
ENDCHAR
STARTCHAR 254
ENCODING 254
SWIDTH 1224 0
DWIDTH 17 0
BBX 13 30 2 -7
BITMAP
F000
F000
F000
F000
F000
F000
F000
F3C0
FFF0
FFF8
F878
F038
F038
F038
F038
F038
F038
F038
F038
F878
FFF8
FFF0
F3C0
F000
F000
F000
F000
F000
F000
F000
ENDCHAR
STARTCHAR 255
ENCODING 255
SWIDTH 1080 0
DWIDTH 15 0
BBX 14 29 1 -7
BITMAP
3870
3870
3870
0000
0000
0000
E01C
F03C
7038
7038
7878
3870
3870
1CF0
1CE0
1CE0
0FC0
0FC0
0FC0
0780
0780
0380
0700
0700
0700
1E00
3E00
3C00
3000
ENDCHAR
ENDFONT
